<svg class="svg-icon" style="width: 1em; height: 1em;vertical-align: middle;fill: currentColor;overflow: hidden;" viewBox="0 0 1024 1024" version="1.1" xmlns="http://www.w3.org/2000/svg"><path d="M957.9 790.5c-14.9-43.1-64.1-49.3-105.2-66.7-45.2-19.1-95.2-41.2-140.3-59.7-12.8-3.5-25.7-7-38.6-10.5-15.3-10.6-30.4-45.7-38.6-63.2-8.2-1.2-16.3-2.3-24.5-3.5 1.3-27 18-28.5 24.5-49.1 5.8-18.2 0.6-41.9 9.8-58.7 6.4-11.7 20.8-11.8 28-21.8 6.5-9.1 10.8-25 12.8-36.2 3.7-20.4 7-48.3-2.7-68.5-5.6-11.6-9.1-12.7-10.6-26.8-1.9-17.1 5.1-72.8 5.3-84.9 0.7-31.3 0-33.8-7.6-64.3 0 0-9.2-27.6-23.6-35.9l-28.7-5-17.7-16.4c-71.5-44-148.1-13.1-189.1 3.5C352 142 314.6 200 340.7 323.7c4.5 21.1-11.6 30.6-10.5 42.1 2.3 25.2 2.8 85.9 26.6 100.8 2.2 1.4 19.1 5.6 19 4.5 2.3 24.6 4.7 49.2 7 73.7 5.9 16.3 20.2 18.1 24.4 41.2l-18.2 4.4c-8.2 17.5-23.3 52.6-38.6 63.2-12.9 3.5-25.7 7-38.6 10.5-45.1 18.5-95.1 40.6-140.3 59.7-41.1 17.4-90.3 23.5-105.2 66.7 0 29.3-2.8 98.5-2 136.9h393.1l28.9-197.3-24-50.7 55.4-26.6 46.7 26-25.9 52.2L584 927.4h375.9c0.7-38.4-2-107.6-2-136.9z"  /></svg>